<mxfile host="app.diagrams.net" modified="2024-02-06T18:53:45.570Z" agent="Mozilla/5.0 (Windows NT 10.0; Win64; x64) AppleWebKit/537.36 (KHTML, like Gecko) Chrome/121.0.0.0 Safari/537.36" etag="k1pTW97o0bmluyvlvL3G" version="23.1.1" type="device">
  <diagram id="R2lEEEUBdFMjLlhIrx00" name="Page-1">
    <mxGraphModel dx="2284" dy="780" grid="1" gridSize="10" guides="1" tooltips="1" connect="1" arrows="1" fold="1" page="1" pageScale="1" pageWidth="850" pageHeight="1100" math="0" shadow="0" extFonts="Permanent Marker^https://fonts.googleapis.com/css?family=Permanent+Marker">
      <root>
        <mxCell id="0" />
        <mxCell id="1" parent="0" />
        <mxCell id="ImPGjt9nL06v0NSoHQ66-117" value="" style="shape=table;startSize=0;container=1;collapsible=0;childLayout=tableLayout;" vertex="1" parent="1">
          <mxGeometry x="10" y="370" width="820" height="40" as="geometry" />
        </mxCell>
        <mxCell id="ImPGjt9nL06v0NSoHQ66-118" value="" style="shape=tableRow;horizontal=0;startSize=0;swimlaneHead=0;swimlaneBody=0;strokeColor=inherit;top=0;left=0;bottom=0;right=0;collapsible=0;dropTarget=0;fillColor=none;points=[[0,0.5],[1,0.5]];portConstraint=eastwest;" vertex="1" parent="ImPGjt9nL06v0NSoHQ66-117">
          <mxGeometry width="820" height="40" as="geometry" />
        </mxCell>
        <mxCell id="ImPGjt9nL06v0NSoHQ66-119" value="&lt;u&gt;ID&lt;/u&gt;" style="shape=partialRectangle;html=1;whiteSpace=wrap;connectable=0;strokeColor=inherit;overflow=hidden;fillColor=none;top=0;left=0;bottom=0;right=0;pointerEvents=1;" vertex="1" parent="ImPGjt9nL06v0NSoHQ66-118">
          <mxGeometry width="164" height="40" as="geometry">
            <mxRectangle width="164" height="40" as="alternateBounds" />
          </mxGeometry>
        </mxCell>
        <mxCell id="ImPGjt9nL06v0NSoHQ66-120" value="nombreAccidente" style="shape=partialRectangle;html=1;whiteSpace=wrap;connectable=0;strokeColor=inherit;overflow=hidden;fillColor=none;top=0;left=0;bottom=0;right=0;pointerEvents=1;" vertex="1" parent="ImPGjt9nL06v0NSoHQ66-118">
          <mxGeometry x="164" width="164" height="40" as="geometry">
            <mxRectangle width="164" height="40" as="alternateBounds" />
          </mxGeometry>
        </mxCell>
        <mxCell id="ImPGjt9nL06v0NSoHQ66-121" value="posVertical" style="shape=partialRectangle;html=1;whiteSpace=wrap;connectable=0;strokeColor=inherit;overflow=hidden;fillColor=none;top=0;left=0;bottom=0;right=0;pointerEvents=1;" vertex="1" parent="ImPGjt9nL06v0NSoHQ66-118">
          <mxGeometry x="328" width="164" height="40" as="geometry">
            <mxRectangle width="164" height="40" as="alternateBounds" />
          </mxGeometry>
        </mxCell>
        <mxCell id="ImPGjt9nL06v0NSoHQ66-122" value="posHorizontal" style="shape=partialRectangle;html=1;whiteSpace=wrap;connectable=0;strokeColor=inherit;overflow=hidden;fillColor=none;top=0;left=0;bottom=0;right=0;pointerEvents=1;" vertex="1" parent="ImPGjt9nL06v0NSoHQ66-118">
          <mxGeometry x="492" width="164" height="40" as="geometry">
            <mxRectangle width="164" height="40" as="alternateBounds" />
          </mxGeometry>
        </mxCell>
        <mxCell id="ImPGjt9nL06v0NSoHQ66-123" value="tipo" style="shape=partialRectangle;html=1;whiteSpace=wrap;connectable=0;strokeColor=inherit;overflow=hidden;fillColor=none;top=0;left=0;bottom=0;right=0;pointerEvents=1;" vertex="1" parent="ImPGjt9nL06v0NSoHQ66-118">
          <mxGeometry x="656" width="164" height="40" as="geometry">
            <mxRectangle width="164" height="40" as="alternateBounds" />
          </mxGeometry>
        </mxCell>
        <mxCell id="ImPGjt9nL06v0NSoHQ66-124" value="&lt;b&gt;ACCIDENTE GEOGRAFICO&lt;/b&gt;" style="text;html=1;strokeColor=none;fillColor=none;align=center;verticalAlign=middle;whiteSpace=wrap;rounded=0;" vertex="1" parent="1">
          <mxGeometry x="297.5" y="340" width="245" height="30" as="geometry" />
        </mxCell>
        <mxCell id="ImPGjt9nL06v0NSoHQ66-126" value="3NF" style="text;strokeColor=none;fillColor=none;html=1;fontSize=24;fontStyle=1;verticalAlign=middle;align=center;" vertex="1" parent="1">
          <mxGeometry x="-140" y="370" width="100" height="40" as="geometry" />
        </mxCell>
      </root>
    </mxGraphModel>
  </diagram>
</mxfile>
